<svg id="Capa_1" data-name="Capa 1" xmlns="http://www.w3.org/2000/svg" viewBox="0 0 1326.23 198.76"><defs><style>.cls-1{fill:#ffffff;}</style></defs><path class="cls-1" d="M48.72,1.86H12.8A12.46,12.46,0,0,0,3.57,5.41,12.57,12.57,0,0,0,0,14.69V186a12.71,12.71,0,0,0,3.52,9.28,12.84,12.84,0,0,0,9.28,3.52H48.72c14.29,0,26.05-5,34.94-14.73s13.23-21.91,13.23-36.37V53.25c0-14.84-4.41-27.22-13.1-36.77C75,6.77,63.16,1.86,48.72,1.86Zm0,172.37H25.6V26.42H48.72c6.88,0,12.19,2.31,16.25,7.07,4.2,4.92,6.3,11.58,6.3,19.76v94.41c0,8-2.1,14.56-6.3,19.49C60.91,171.91,55.6,174.23,48.72,174.23Z"/><path class="cls-1" d="M165.45,0C151,0,139.15,4.94,130.13,14.74s-13.39,22.42-13.39,38v138a7.09,7.09,0,0,0,7.5,7.47h10.62a7.1,7.1,0,0,0,7.52-7.47V130.67h46.18v60.09a7.09,7.09,0,0,0,7.5,7.47h10.63a7.16,7.16,0,0,0,7.48-7.47v-138c0-15.56-4.5-28.33-13.38-38S179.89,0,165.45,0ZM142.38,52.72c0-9.27,2.05-16.4,6.15-21.24,4-4.65,9.51-6.94,16.92-6.94s13,2.29,16.93,6.94c4.11,4.84,6.18,12,6.18,21.24v53.4H142.38Z"/><path class="cls-1" d="M308.81,174.23H284.88a19.14,19.14,0,0,1-15.46-7.08c-4.26-5-6.32-11.14-6.32-18.68V9.9a7.11,7.11,0,0,0-7.49-7.52H245A7.17,7.17,0,0,0,237.5,9.9V148.47a54.63,54.63,0,0,0,5.84,25.33,45.6,45.6,0,0,0,16.8,18.28,46.36,46.36,0,0,0,24.74,6.68h23.93a7.1,7.1,0,0,0,7.49-7.5V181.7A7.08,7.08,0,0,0,308.81,174.23Z"/><path class="cls-1" d="M382.34,0C367.89,0,356,4.94,347,14.74c-8.87,9.65-13.36,22.42-13.36,38v138a7.08,7.08,0,0,0,7.48,7.47h10.64a7.1,7.1,0,0,0,7.51-7.47V130.67h46.17v60.09a7.09,7.09,0,0,0,7.5,7.47h10.62a7.17,7.17,0,0,0,7.5-7.47v-138c0-15.56-4.49-28.33-13.36-38S396.77,0,382.34,0ZM359.25,52.72c0-9.28,2.06-16.42,6.17-21.24,3.94-4.65,9.47-6.94,16.92-6.94s13,2.29,16.94,6.94c4.09,4.84,6.14,12,6.14,21.24v53.4H359.25Z"/><path class="cls-1" d="M522.48,2.38H442.7a7.18,7.18,0,0,0-7.49,7.52v9.54A7.1,7.1,0,0,0,442.7,27h27.09v163.8a7.09,7.09,0,0,0,7.49,7.47h10.6a7.1,7.1,0,0,0,7.52-7.47V27h27.08A7.1,7.1,0,0,0,530,19.44V9.9A7.1,7.1,0,0,0,522.48,2.38Z"/><path class="cls-1" d="M646.37,55.37a14.81,14.81,0,0,1-14.8,14.78H616.15a.86.86,0,0,1-.86-.85V5.82a.83.83,0,0,1,.86-.83h15.42a14.78,14.78,0,0,1,14.8,14.78Zm-14.8,5.72a5.79,5.79,0,0,0,5.75-5.72V19.77A5.76,5.76,0,0,0,631.57,14H625.2a.84.84,0,0,0-.86.85V60.24a.84.84,0,0,0,.86.85Z"/><path class="cls-1" d="M721.75,50.5v3.83A15.77,15.77,0,0,1,706,70.15a15.52,15.52,0,0,1-15.2-15.48V48.85a.85.85,0,0,1,.87-.85H699a.85.85,0,0,1,.84.85v5.61a6.44,6.44,0,1,0,12.87.21V50.5a7.37,7.37,0,0,0-4-6.59l-9.09-4.77a16.47,16.47,0,0,1-8.84-14.6V20.79A15.75,15.75,0,0,1,706.55,5a15.48,15.48,0,0,1,15.19,15.49v5.37a.86.86,0,0,1-.83.84h-7.36a.86.86,0,0,1-.87-.84V20.66A6.51,6.51,0,0,0,706.35,14a6.39,6.39,0,0,0-4.6,1.82,6.47,6.47,0,0,0-1.94,4.61v4.08a7.52,7.52,0,0,0,4,6.6l9.09,4.74A16.44,16.44,0,0,1,721.75,50.5Z"/><path class="cls-1" d="M686.17,61.93V69.3a.87.87,0,0,1-.87.85H656.13a.87.87,0,0,1-.86-.85V5.82a.76.76,0,0,1,.28-.6.74.74,0,0,1,.58-.25l29.18,0a.94.94,0,0,1,.61.23.86.86,0,0,1,.25.6V13.2a1,1,0,0,1-.25.61.91.91,0,0,1-.62.24l-20.12,0a1,1,0,0,0-.6.24.94.94,0,0,0-.24.61v17.3a.84.84,0,0,0,.84.85H680a.85.85,0,0,1,.85.86v7.34a.86.86,0,0,1-.85.86H665.18a.84.84,0,0,0-.84.86V60.24a.85.85,0,0,0,.84.85H685.3A.86.86,0,0,1,686.17,61.93Z"/><path class="cls-1" d="M979.62,54.84A15.34,15.34,0,0,1,964.3,70.15h-.18a15.33,15.33,0,0,1-15.29-15.31V20.27A15.32,15.32,0,0,1,964.12,5h.18a15.33,15.33,0,0,1,15.32,15.3Zm-9.08,0V20.27A6.24,6.24,0,0,0,964.3,14h-.18a6.24,6.24,0,0,0-6.24,6.24V54.84a6.26,6.26,0,0,0,6.24,6.25h.18A6.25,6.25,0,0,0,970.54,54.84Z"/><path class="cls-1" d="M871.38,54.84a15.33,15.33,0,0,1-15.31,15.31h-.18a15.31,15.31,0,0,1-15.28-15.31V20.27A15.3,15.3,0,0,1,855.89,5h.18a15.32,15.32,0,0,1,15.31,15.3Zm-9.06,0V20.27A6.25,6.25,0,0,0,856.07,14h-.18a6.24,6.24,0,0,0-6.24,6.24V54.84a6.26,6.26,0,0,0,6.24,6.25h.18A6.27,6.27,0,0,0,862.32,54.84Z"/><path class="cls-1" d="M1041.16,69.81a.91.91,0,0,1-.66.32H1033a.85.85,0,0,1-.84-.72l-2-10.61a.87.87,0,0,0-.84-.69H1019a.84.84,0,0,0-.82.69l-2,10.61a.86.86,0,0,1-.84.72h-7.46a.84.84,0,0,1-.66-.32.83.83,0,0,1-.19-.7l12-63.43a.83.83,0,0,1,.83-.69h8.7a.8.8,0,0,1,.85.69l12,63.43A.85.85,0,0,1,1041.16,69.81ZM1028,48.73a.82.82,0,0,0,.18-.69L1025,31.45a.84.84,0,0,0-.84-.69.83.83,0,0,0-.82.69L1020.2,48a.86.86,0,0,0,.19.69.93.93,0,0,0,.66.31h6.26A.88.88,0,0,0,1028,48.73Z"/><path class="cls-1" d="M759,69.81a.93.93,0,0,1-.66.32h-7.49a.84.84,0,0,1-.82-.72L748,58.8a.85.85,0,0,0-.83-.69H736.83a.88.88,0,0,0-.84.69l-2,10.61a.86.86,0,0,1-.84.72h-7.48a.84.84,0,0,1-.65-.32.83.83,0,0,1-.19-.7l12-63.43a.86.86,0,0,1,.85-.69h8.69a.8.8,0,0,1,.85.69l12,63.43A.81.81,0,0,1,759,69.81Zm-13.2-21.08A.82.82,0,0,0,746,48l-3.12-16.59a.87.87,0,0,0-.85-.69.82.82,0,0,0-.82.69L738,48a.89.89,0,0,0,.19.69.94.94,0,0,0,.67.31h6.25A.87.87,0,0,0,745.78,48.73Z"/><path class="cls-1" d="M1069.08,25.78a.83.83,0,0,1-.26-.58V20.27a6.24,6.24,0,0,0-6.24-6.24h-.19a6.22,6.22,0,0,0-6.24,6.24V54.84a6.3,6.3,0,0,0,1.84,4.43,6.2,6.2,0,0,0,4.4,1.82h.19a6.26,6.26,0,0,0,6.24-6.25V49.33a.86.86,0,0,1,.85-.85H1077a.86.86,0,0,1,.86.85v5.51a15.32,15.32,0,0,1-15.3,15.31h-.19a15.32,15.32,0,0,1-15.31-15.31V20.27A15.31,15.31,0,0,1,1062.39,5h.19a15.31,15.31,0,0,1,15.3,15.3V25.2a.86.86,0,0,1-.86.84h-7.35A.82.82,0,0,1,1069.08,25.78Z"/><path class="cls-1" d="M1107.52,25.78a.89.89,0,0,1-.23-.58V20.27A6.24,6.24,0,0,0,1101,14h-.17a6.23,6.23,0,0,0-6.26,6.24V54.84a6.25,6.25,0,0,0,6.26,6.25h.17a6.26,6.26,0,0,0,6.26-6.25V49.33a.85.85,0,0,1,.84-.85h7.35a.86.86,0,0,1,.85.85v5.51A15.3,15.3,0,0,1,1101,70.15h-.17a15.32,15.32,0,0,1-15.31-15.31V20.27A15.31,15.31,0,0,1,1100.86,5h.17a15.29,15.29,0,0,1,15.3,15.3V25.2a.85.85,0,0,1-.85.84h-7.35A.88.88,0,0,1,1107.52,25.78Z"/><path class="cls-1" d="M1154.89,61.93V69.3a.85.85,0,0,1-.84.85h-29.19a.86.86,0,0,1-.84-.85V5.82a.72.72,0,0,1,.26-.6.74.74,0,0,1,.58-.25l29.19,0a1,1,0,0,1,.61.23.86.86,0,0,1,.25.6l0,7.35a.83.83,0,0,1-.24.61.86.86,0,0,1-.6.24l-20.11,0a.84.84,0,0,0-.6.24.87.87,0,0,0-.26.61v17.3a.85.85,0,0,0,.86.85h14.83a.86.86,0,0,1,.85.86v7.34a.86.86,0,0,1-.85.86h-14.83a.85.85,0,0,0-.86.86V60.24a.86.86,0,0,0,.86.85h20.11A.84.84,0,0,1,1154.89,61.93Z"/><path class="cls-1" d="M1193.57,50.5v3.83a15.77,15.77,0,0,1-15.81,15.82,15.5,15.5,0,0,1-15.18-15.48V48.85a.85.85,0,0,1,.85-.85h7.33a.87.87,0,0,1,.87.85v5.61a6.44,6.44,0,0,0,10.95,4.79,6.48,6.48,0,0,0,1.92-4.58V50.5a7.37,7.37,0,0,0-4-6.59l-9.09-4.77a16.42,16.42,0,0,1-8.85-14.6V20.79A15.76,15.76,0,0,1,1178.38,5a15.5,15.5,0,0,1,15.19,15.49v5.37a.86.86,0,0,1-.87.84h-7.34a.87.87,0,0,1-.86-.84V20.66a6.51,6.51,0,0,0-6.34-6.63,6.45,6.45,0,0,0-4.61,1.82,6.53,6.53,0,0,0-1.92,4.61v4.08a7.48,7.48,0,0,0,4,6.6l9.08,4.74A16.5,16.5,0,0,1,1193.57,50.5Z"/><path class="cls-1" d="M1202.08,70.13a.88.88,0,0,1-.87-.87V5.78a.88.88,0,0,1,.87-.87h7.34a.86.86,0,0,1,.86.87V69.26a.86.86,0,0,1-.86.87Z"/><path class="cls-1" d="M1245.28,37.68a14.87,14.87,0,0,1,3.64,9.73v7.94a14.85,14.85,0,0,1-14.8,14.8h-15.35a.86.86,0,0,1-.85-.85V5.82a.84.84,0,0,1,.85-.85h15.35a14.83,14.83,0,0,1,14.8,14.8v7.09a14.9,14.9,0,0,1-3.64,9.74A.78.78,0,0,0,1245.28,37.68Zm-5.41-10.82V19.77a5.75,5.75,0,0,0-5.75-5.74h-6.28a.83.83,0,0,0-.84.85V31.75a.84.84,0,0,0,.84.85h6.28A5.77,5.77,0,0,0,1239.87,26.86Zm0,20.55a5.77,5.77,0,0,0-5.75-5.75h-6.28a.85.85,0,0,0-.84.85V60.24a.85.85,0,0,0,.84.85h6.28a5.74,5.74,0,0,0,5.75-5.74Z"/><path class="cls-1" d="M1287.67,61.93V69.3a.86.86,0,0,1-.85.85h-29.39a.86.86,0,0,1-.85-.85V5.78a.86.86,0,0,1,.85-.87h7.36a.85.85,0,0,1,.83.87V60.24a.87.87,0,0,0,.85.85h20.35A.85.85,0,0,1,1287.67,61.93Z"/><path class="cls-1" d="M1326.2,61.93V69.3a.84.84,0,0,1-.85.85h-29.16a.86.86,0,0,1-.87-.85V5.82a.8.8,0,0,1,.24-.6.88.88,0,0,1,.63-.25l29.17,0a.91.91,0,0,1,.6.23.8.8,0,0,1,.27.6l0,7.35a.85.85,0,0,1-.85.85l-20.12,0a.9.9,0,0,0-.6.24,1,1,0,0,0-.26.61v17.3a.86.86,0,0,0,.86.85h14.83a.86.86,0,0,1,.87.86v7.34a.87.87,0,0,1-.87.86h-14.83a.86.86,0,0,0-.86.86V60.24a.87.87,0,0,0,.86.85h20.12A.83.83,0,0,1,1326.2,61.93Z"/><path class="cls-1" d="M911.21,62.2v7.16a.82.82,0,0,1-.82.83H881.78a.84.84,0,0,1-.85-.83V7.48a.86.86,0,0,1,.85-.83h7.14a.87.87,0,0,1,.85.83v53a.83.83,0,0,0,.82.86h19.8A.81.81,0,0,1,911.21,62.2Z"/><path class="cls-1" d="M946.31,62.2v7.16a.81.81,0,0,1-.82.83H916.9a.84.84,0,0,1-.86-.83V7.48a.86.86,0,0,1,.86-.83H924a.87.87,0,0,1,.85.83v53a.83.83,0,0,0,.82.86h19.8A.8.8,0,0,1,946.31,62.2Z"/><path class="cls-1" d="M794.37,69.74a.86.86,0,0,1-.72.42H785.5a.85.85,0,0,1-.74-.44L776,53.64a.83.83,0,0,0-.73-.44h-1.2a.84.84,0,0,0-.83.82v15.3a.84.84,0,0,1-.84.84h-7.15a.83.83,0,0,1-.82-.84V7.52a.81.81,0,0,1,.82-.82h16.41a12.74,12.74,0,0,1,12.74,12.74v21a12.77,12.77,0,0,1-8,11.84.83.83,0,0,0-.48.49.92.92,0,0,0,0,.69l8.45,15.43A.92.92,0,0,1,794.37,69.74Zm-8.8-50.3a3.94,3.94,0,0,0-3.93-3.94h-7.59a.83.83,0,0,0-.83.85V43.56a.83.83,0,0,0,.83.82h7.59a3.92,3.92,0,0,0,3.93-3.93Z"/><path class="cls-1" d="M833,69.74a.82.82,0,0,1-.71.42h-8.14a.81.81,0,0,1-.74-.44l-8.78-16.08a.88.88,0,0,0-.75-.44h-1.19a.83.83,0,0,0-.82.82v15.3a.84.84,0,0,1-.86.84h-7.14a.84.84,0,0,1-.83-.84V7.52a.82.82,0,0,1,.83-.82h16.4A12.72,12.72,0,0,1,833,19.44v21a12.73,12.73,0,0,1-8,11.84.91.91,0,0,0-.49.49,1,1,0,0,0,0,.69L833,68.9A.82.82,0,0,1,833,69.74Zm-8.79-50.3a4,4,0,0,0-3.94-3.94h-7.58a.82.82,0,0,0-.82.85V43.56a.82.82,0,0,0,.82.82h7.58a3.93,3.93,0,0,0,3.94-3.93Z"/><path class="cls-1" d="M656,187.24V197a1.11,1.11,0,0,1-1.13,1.13H616a1.13,1.13,0,0,1-1.15-1.13V112.85a1.14,1.14,0,0,1,1.15-1.12h9.69a1.15,1.15,0,0,1,1.16,1.12V185A1.13,1.13,0,0,0,628,186.1h26.9A1.11,1.11,0,0,1,656,187.24Z"/><path class="cls-1" d="M711.38,197.66a1.09,1.09,0,0,1-.85.39h-9.9a1.15,1.15,0,0,1-1.13-.94l-2.64-14a1.13,1.13,0,0,0-1.11-.94H682.1a1.15,1.15,0,0,0-1.13.94l-2.66,14a1.13,1.13,0,0,1-1.1.94h-9.9a1.08,1.08,0,0,1-1.1-1.33l15.83-84a1.14,1.14,0,0,1,1.11-.91h11.51a1.12,1.12,0,0,1,1.13.91l15.83,84A1.28,1.28,0,0,1,711.38,197.66Zm-17.47-27.94a1.08,1.08,0,0,0,.27-.91l-4.15-22a1.13,1.13,0,0,0-1.13-.9,1.09,1.09,0,0,0-1.1.9l-4.17,22a1.2,1.2,0,0,0,1.14,1.34H693A1.08,1.08,0,0,0,693.91,169.72Z"/><path class="cls-1" d="M753.19,112.12a1.22,1.22,0,0,1,.33.81v9.72a1.14,1.14,0,0,1-1.15,1.14H739.74a1.11,1.11,0,0,0-1.13,1.13v72a1.16,1.16,0,0,1-.37.81,1.09,1.09,0,0,1-.79.32h-9.72a1.12,1.12,0,0,1-1.13-1.13v-72a1.13,1.13,0,0,0-1.13-1.13H712.8a1.17,1.17,0,0,1-1.11-1.16v-9.7a1.12,1.12,0,0,1,1.11-1.12h39.57A1.11,1.11,0,0,1,753.19,112.12Z"/><path class="cls-1" d="M764.77,198.05a1.14,1.14,0,0,1-1.16-1.13V112.85a1.13,1.13,0,0,1,1.16-1.12h9.7a1.15,1.15,0,0,1,1.16,1.12v84.07a1.15,1.15,0,0,1-1.16,1.13Z"/><path class="cls-1" d="M826.16,112.06a1.06,1.06,0,0,1,.34.79v84.07a1.12,1.12,0,0,1-1.12,1.13H813.71a1.13,1.13,0,0,1-1.11-.81l-14-46.43a.47.47,0,0,0-.51-.32.46.46,0,0,0-.4.47l0,46a1.13,1.13,0,0,1-1.12,1.13h-9.75a1.14,1.14,0,0,1-1.13-1.13v-84a1.1,1.1,0,0,1,1.13-1.12h11.68a1.17,1.17,0,0,1,1.08.78l14,46.53a.45.45,0,0,0,.52.3.46.46,0,0,0,.39-.45v-46.1a1.1,1.1,0,0,1,1.12-1.12h9.74A1.07,1.07,0,0,1,826.16,112.06Z"/><path class="cls-1" d="M877.42,177.81a20.3,20.3,0,0,1-20.26,20.28h-.24a20.3,20.3,0,0,1-20.26-20.28V132.05a20.28,20.28,0,0,1,20.26-20.26h.24a20.29,20.29,0,0,1,20.26,20.26Zm-12,0V132.05a8.32,8.32,0,0,0-8.27-8.3h-.24a8.3,8.3,0,0,0-8.25,8.3v45.76a8.29,8.29,0,0,0,8.25,8.29h.24A8.31,8.31,0,0,0,865.43,177.81Z"/><path class="cls-1" d="M1275,112.06a1.06,1.06,0,0,1,.34.79v84.07a1.12,1.12,0,0,1-1.12,1.13h-11.67a1.15,1.15,0,0,1-1.12-.81l-14-46.43a.47.47,0,0,0-.51-.32.45.45,0,0,0-.4.47l0,46a1.13,1.13,0,0,1-1.12,1.13h-9.75a1.14,1.14,0,0,1-1.13-1.13v-84a1.1,1.1,0,0,1,1.13-1.12h11.68a1.15,1.15,0,0,1,1.07.78l14,46.53a.45.45,0,0,0,.52.3.47.47,0,0,0,.39-.45v-46.1a1.1,1.1,0,0,1,1.12-1.12h9.74A1.07,1.07,0,0,1,1275,112.06Z"/><path class="cls-1" d="M1326.23,177.81A20.3,20.3,0,0,1,1306,198.09h-.23a20.3,20.3,0,0,1-20.26-20.28V132.05a20.28,20.28,0,0,1,20.26-20.26h.23a20.29,20.29,0,0,1,20.27,20.26Zm-12,0V132.05a8.33,8.33,0,0,0-8.28-8.3h-.23a8.31,8.31,0,0,0-8.26,8.3v45.76a8.29,8.29,0,0,0,8.26,8.29h.23A8.31,8.31,0,0,0,1314.24,177.81Z"/><path class="cls-1" d="M930.27,197.64a1.07,1.07,0,0,1-.86.41h-9.89a1.15,1.15,0,0,1-1.12-.94l-2.66-14a1.11,1.11,0,0,0-1.1-.95H901a1.14,1.14,0,0,0-1.12.95l-2.67,14a1.1,1.1,0,0,1-1.07.94h-9.93a1.19,1.19,0,0,1-.87-.41,1.14,1.14,0,0,1-.23-.92l15.83-84a1.13,1.13,0,0,1,1.12-.91h11.52a1.13,1.13,0,0,1,1.13.91l15.85,84A1.17,1.17,0,0,1,930.27,197.64Zm-17.44-27.92a1.26,1.26,0,0,0,.22-.93l-4.15-21.94a1.1,1.1,0,0,0-1.1-.93,1.15,1.15,0,0,0-1.13.93l-4.13,21.94a1.09,1.09,0,0,0,.26.93,1.07,1.07,0,0,0,.85.43h8.29A1.21,1.21,0,0,0,912.83,169.72Z"/><path class="cls-1" d="M995.89,196.92a1.11,1.11,0,0,1-1.11,1.13h-9.72a1.12,1.12,0,0,1-1.13-1.13V158.66a.5.5,0,0,0-.43-.45.42.42,0,0,0-.47.35l-9.29,38.62a1.11,1.11,0,0,1-1.1.87h-8.72a1.11,1.11,0,0,1-1.1-.87l-9.27-38.46a.42.42,0,0,0-.48-.33.44.44,0,0,0-.42.44v38.09a1.12,1.12,0,0,1-1.13,1.13H941.8a1.12,1.12,0,0,1-1.13-1.13v-84a1.11,1.11,0,0,1,1.13-1.12h11.88a1.15,1.15,0,0,1,1.11.85l13.05,54.17a.4.4,0,0,0,.43.32.43.43,0,0,0,.44-.32l13-54.17a1.14,1.14,0,0,1,1.1-.85h12a1.09,1.09,0,0,1,1.11,1.12Z"/><path class="cls-1" d="M1046.89,187.24V197a1.12,1.12,0,0,1-1.13,1.13h-38.64A1.12,1.12,0,0,1,1006,197V112.91a1,1,0,0,1,.34-.79,1,1,0,0,1,.77-.33l38.67.06a1.13,1.13,0,0,1,.78.3,1.07,1.07,0,0,1,.35.81l0,9.72a1.13,1.13,0,0,1-1.13,1.14l-26.64,0a1.24,1.24,0,0,0-.81.32,1.31,1.31,0,0,0-.31.81v22.9a1.12,1.12,0,0,0,1.12,1.12h19.66a1.13,1.13,0,0,1,1.14,1.13v9.72a1.12,1.12,0,0,1-1.14,1.12h-19.66a1.15,1.15,0,0,0-1.12,1.16V185a1.13,1.13,0,0,0,1.12,1.14h26.64A1.12,1.12,0,0,1,1046.89,187.24Z"/><path class="cls-1" d="M1097.79,197.5a1.14,1.14,0,0,1-1,.55h-11a1.1,1.1,0,0,1-1-.6l-12-21.86a1.16,1.16,0,0,0-1-.59h-1.61a1.13,1.13,0,0,0-1.13,1.13v20.79a1.13,1.13,0,0,1-1.15,1.13h-9.72a1.11,1.11,0,0,1-1.12-1.13v-84a1.1,1.1,0,0,1,1.12-1.12h22.32a17.32,17.32,0,0,1,17.3,17.32v28.58a17.38,17.38,0,0,1-10.92,16.09,1.11,1.11,0,0,0-.64.68,1.34,1.34,0,0,0,.07.92l11.49,21A1.14,1.14,0,0,1,1097.79,197.5Zm-11.94-68.39a5.37,5.37,0,0,0-5.34-5.36h-10.32a1.13,1.13,0,0,0-1.13,1.16v37a1.11,1.11,0,0,0,1.13,1.11h10.32a5.34,5.34,0,0,0,5.34-5.33Z"/><path class="cls-1" d="M1109.25,198.05a1.12,1.12,0,0,1-1.12-1.13V112.85a1.11,1.11,0,0,1,1.12-1.12H1119a1.12,1.12,0,0,1,1.15,1.12v84.07a1.13,1.13,0,0,1-1.15,1.13Z"/><path class="cls-1" d="M1159.33,139.35a1.15,1.15,0,0,1-.32-.79v-6.51a8.3,8.3,0,0,0-8.27-8.3h-.23a8.29,8.29,0,0,0-8.28,8.3v45.76a8.28,8.28,0,0,0,2.43,5.85,8.18,8.18,0,0,0,5.85,2.44h.23a8.29,8.29,0,0,0,8.27-8.29v-7.27a1.11,1.11,0,0,1,1.12-1.13h9.73a1.12,1.12,0,0,1,1.13,1.13v7.27a20.25,20.25,0,0,1-20.25,20.28h-.23a20.27,20.27,0,0,1-20.27-20.28V132.05a20.25,20.25,0,0,1,20.27-20.26h.23A20.24,20.24,0,0,1,1171,132.05v6.51a1.14,1.14,0,0,1-1.13,1.14h-9.73A1.17,1.17,0,0,1,1159.33,139.35Z"/><path class="cls-1" d="M1223.82,197.64a1.13,1.13,0,0,1-.87.41h-9.87a1.13,1.13,0,0,1-1.12-.94l-2.64-14a1.16,1.16,0,0,0-1.14-.95h-13.62a1.12,1.12,0,0,0-1.13.95l-2.65,14a1.15,1.15,0,0,1-1.12.94h-9.88a1.16,1.16,0,0,1-1.14-1.33l15.86-84a1.09,1.09,0,0,1,1.11-.91h11.52a1.14,1.14,0,0,1,1.13.91l15.82,84A1.17,1.17,0,0,1,1223.82,197.64Zm-17.44-27.92a1.07,1.07,0,0,0,.23-.93l-4.13-21.94a1.14,1.14,0,0,0-1.11-.93,1.12,1.12,0,0,0-1.11.93l-4.15,21.94a1.08,1.08,0,0,0,.25.93,1.15,1.15,0,0,0,.87.43h8.28A1.12,1.12,0,0,0,1206.38,169.72Z"/><path class="cls-1" d="M567.44,198.38a6.82,6.82,0,0,1-6.81-6.81V8.12a6.81,6.81,0,1,1,13.62,0V191.57A6.8,6.8,0,0,1,567.44,198.38Z"/></svg>