<svg id="Capa_1" data-name="Capa 1" xmlns="http://www.w3.org/2000/svg" viewBox="0 0 1712.19 622.82"><defs><style>.cls-1{fill:#0a3055;}.cls-2{fill:#713e94;}</style></defs><path class="cls-1" d="M796.1,137.47H727.73c-7.23,0-13.18,2.29-17.58,6.77s-6.78,10.46-6.78,17.67v326c0,7.17,2.24,13.1,6.71,17.68,4.43,4.38,10.53,6.68,17.65,6.68H796.1c27.2,0,49.61-9.42,66.5-28,16.72-18.41,25.2-41.72,25.2-69.25V235.31c0-28.26-8.37-51.82-24.92-70C846.07,146.82,823.59,137.47,796.1,137.47Zm0,328.13h-44V184.24h44c13.12,0,23.22,4.39,30.93,13.46,8,9.35,12,22,12,37.61V415c0,15.23-4,27.73-12,37.11C819.32,461.17,809.22,465.6,796.1,465.6Z"/><path class="cls-1" d="M1018.31,133.94c-27.45,0-50.07,9.43-67.25,28-16.91,18.4-25.47,42.69-25.47,72.31V497.06c0,8.51,5.74,14.2,14.27,14.2h20.22c8.55,0,14.3-5.69,14.3-14.2V382.68h87.93V497.06c0,8.51,5.71,14.2,14.27,14.2h20.24c8.38,0,14.24-5.85,14.24-14.2V234.29c0-29.62-8.58-53.91-25.47-72.31C1068.44,143.37,1045.8,133.94,1018.31,133.94ZM974.38,234.29c0-17.64,3.93-31.22,11.73-40.42,7.56-8.87,18.1-13.2,32.2-13.2s24.7,4.33,32.23,13.2c7.81,9.2,11.77,22.78,11.77,40.42V336H974.38Z"/><path class="cls-1" d="M1291.2,465.6h-45.55c-12.15,0-21.8-4.43-29.45-13.47-8.09-9.58-12-21.2-12-35.57V152.79c0-8.55-5.73-14.31-14.26-14.31h-20.28c-8.37,0-14.21,5.89-14.21,14.31V416.56c0,17.71,3.77,33.95,11.13,48.22a86.5,86.5,0,0,0,32,34.8c13.69,8.42,29.51,12.7,47.08,12.7h45.55c8.55,0,14.26-5.74,14.26-14.25v-18.2C1305.46,471.3,1299.75,465.6,1291.2,465.6Z"/><path class="cls-1" d="M1431.18,133.94c-27.52,0-50.14,9.43-67.33,28-16.87,18.4-25.43,42.69-25.43,72.31V497.06c0,8.51,5.73,14.2,14.26,14.2h20.24c8.56,0,14.3-5.69,14.3-14.2V382.68h87.89V497.06c0,8.51,5.71,14.2,14.26,14.2h20.24c8.4,0,14.26-5.85,14.26-14.2V234.29c0-29.62-8.54-53.91-25.44-72.31C1481.27,143.37,1458.64,133.94,1431.18,133.94Zm-44,100.35c0-17.67,3.92-31.25,11.74-40.42,7.49-8.87,18-13.2,32.22-13.2s24.69,4.33,32.24,13.2c7.76,9.2,11.69,22.78,11.69,40.42V336h-87.89Z"/><path class="cls-1" d="M1697.92,138.48H1546.06c-8.39,0-14.24,5.89-14.24,14.31V171c0,8.55,5.72,14.31,14.24,14.31h51.57v311.8c0,8.51,5.72,14.2,14.25,14.2h20.18c8.58,0,14.33-5.69,14.33-14.2V185.26h51.53c8.56,0,14.27-5.76,14.27-14.31V152.79C1712.19,144.24,1706.48,138.48,1697.92,138.48Z"/><path class="cls-1" d="M136.1,135.54a41.9,41.9,0,1,0,59.25.26A42,42,0,0,0,136.1,135.54Z"/><path class="cls-1" d="M427.86,135.54a41.9,41.9,0,1,0,59.25.26A42,42,0,0,0,427.86,135.54Z"/><path class="cls-1" d="M427.86,427.56a41.9,41.9,0,1,0,59.25.25A42,42,0,0,0,427.86,427.56Z"/><path class="cls-2" d="M331,331H143.64C64.44,331,0,266.54,0,187.32V0H331ZM39.12,39.13V187.32A104.64,104.64,0,0,0,143.64,291.85H291.85V39.13Z"/><path class="cls-2" d="M622.83,622.82H435.5c-79.21,0-143.65-64.44-143.65-143.64V291.85h331ZM331,331v148.2A104.65,104.65,0,0,0,435.5,583.7H583.7V331Z"/><path class="cls-2" d="M622.83,331h-331V0H479.19c79.2,0,143.64,64.45,143.64,143.65ZM331,291.85H583.7V143.66A104.63,104.63,0,0,0,479.19,39.14H331Z"/><polygon class="cls-1" points="473.39 155.03 166.1 155.03 166.1 174.25 448.17 174.25 448.17 463.16 467.36 463.16 467.36 174.25 473.39 174.25 473.39 155.03"/></svg>